<svg id="visual" viewBox="0 0 900 600" width="900" height="600" xmlns="http://www.w3.org/2000/svg" xmlns:xlink="http://www.w3.org/1999/xlink" version="1.1"><rect x="0" y="0" width="900" height="600" fill="#f7fafc"></rect><defs><linearGradient id="grad1_0" x1="33.3%" y1="0%" x2="100%" y2="100%"><stop offset="20%" stop-color="#f7fafc" stop-opacity="1"></stop><stop offset="80%" stop-color="#f7fafc" stop-opacity="1"></stop></linearGradient></defs><defs><linearGradient id="grad2_0" x1="0%" y1="0%" x2="66.7%" y2="100%"><stop offset="20%" stop-color="#f7fafc" stop-opacity="1"></stop><stop offset="80%" stop-color="#f7fafc" stop-opacity="1"></stop></linearGradient></defs><g transform="translate(900, 0)"><path d="M0 189.3C-14.9 165.3 -29.8 141.4 -42 129.3C-54.2 117.3 -63.7 117.1 -86.4 118.9C-109.1 120.7 -144.9 124.4 -153.1 111.3C-161.4 98.1 -142.2 68 -143.6 46.7C-145 25.3 -167.2 12.7 -189.3 0L0 0Z" fill="#f56565"></path></g><g transform="translate(0, 600)"><path d="M0 -189.3C17.4 -177.7 34.8 -166.1 50.7 -156C66.5 -145.8 80.9 -137.1 91.7 -126.2C102.5 -115.3 109.8 -102.2 126.2 -91.7C142.6 -81.2 168 -73.3 180 -58.5C192 -43.6 190.7 -21.8 189.3 0L0 0Z" fill="#f56565"></path></g></svg>