<svg id="visual" viewBox="0 0 900 600" width="900" height="600" xmlns="http://www.w3.org/2000/svg" xmlns:xlink="http://www.w3.org/1999/xlink" version="1.1"><rect x="0" y="0" width="900" height="600" fill="#f7fafc"></rect><defs><linearGradient id="grad1_0" x1="33.3%" y1="0%" x2="100%" y2="100%"><stop offset="20%" stop-color="#f7fafc" stop-opacity="1"></stop><stop offset="80%" stop-color="#f7fafc" stop-opacity="1"></stop></linearGradient></defs><defs><linearGradient id="grad2_0" x1="0%" y1="0%" x2="66.7%" y2="100%"><stop offset="20%" stop-color="#f7fafc" stop-opacity="1"></stop><stop offset="80%" stop-color="#f7fafc" stop-opacity="1"></stop></linearGradient></defs><g transform="translate(900, 0)"><path d="M0 216.3C-20.4 207 -40.8 197.6 -62.4 192.1C-84.1 186.6 -107 185 -127.2 175C-147.3 165 -164.8 146.6 -173.1 125.8C-181.5 105 -180.7 81.9 -186.4 60.6C-192.1 39.2 -204.2 19.6 -216.3 0L0 0Z" fill="#f56565"></path></g><g transform="translate(0, 600)"><path d="M0 -216.3C21.3 -206.6 42.6 -196.8 60.3 -185.5C77.9 -174.1 91.9 -161.1 109.9 -151.3C127.9 -141.5 149.9 -135 167.5 -121.7C185.1 -108.4 198.3 -88.3 205.7 -66.9C213.2 -45.4 214.7 -22.7 216.3 0L0 0Z" fill="#f56565"></path></g></svg>