<svg id="visual" viewBox="0 0 900 600" width="900" height="600" xmlns="http://www.w3.org/2000/svg" xmlns:xlink="http://www.w3.org/1999/xlink" version="1.1"><rect x="0" y="0" width="900" height="600" fill="#f7fafc"></rect><defs><linearGradient id="grad1_0" x1="33.3%" y1="0%" x2="100%" y2="100%"><stop offset="20%" stop-color="#f7fafc" stop-opacity="1"></stop><stop offset="80%" stop-color="#f7fafc" stop-opacity="1"></stop></linearGradient></defs><defs><linearGradient id="grad2_0" x1="0%" y1="0%" x2="66.7%" y2="100%"><stop offset="20%" stop-color="#f7fafc" stop-opacity="1"></stop><stop offset="80%" stop-color="#f7fafc" stop-opacity="1"></stop></linearGradient></defs><g transform="translate(900, 0)"><path d="M0 135.2C-15.1 135.2 -30.2 135.3 -41.8 128.6C-53.3 121.9 -61.3 108.6 -72.3 99.5C-83.3 90.4 -97.2 85.6 -104.4 75.8C-111.6 66 -112 51.2 -116 37.7C-120 24.2 -127.6 12.1 -135.2 0L0 0Z" fill="#f56565"></path></g><g transform="translate(0, 600)"><path d="M0 -135.2C11.8 -127.8 23.6 -120.4 38.3 -117.9C53.1 -115.5 70.8 -117.9 79.5 -109.4C88.1 -100.9 87.8 -81.4 94.7 -68.8C101.5 -56.2 115.7 -50.5 123.6 -40.2C131.6 -29.9 133.4 -14.9 135.2 0L0 0Z" fill="#f56565"></path></g></svg>