<svg id="visual" viewBox="0 0 900 600" width="900" height="600" xmlns="http://www.w3.org/2000/svg" xmlns:xlink="http://www.w3.org/1999/xlink" version="1.1"><rect x="0" y="0" width="900" height="600" fill="#f7fafc"></rect><defs><linearGradient id="grad1_0" x1="33.3%" y1="0%" x2="100%" y2="100%"><stop offset="20%" stop-color="#f7fafc" stop-opacity="1"></stop><stop offset="80%" stop-color="#f7fafc" stop-opacity="1"></stop></linearGradient></defs><defs><linearGradient id="grad2_0" x1="0%" y1="0%" x2="66.7%" y2="100%"><stop offset="20%" stop-color="#f7fafc" stop-opacity="1"></stop><stop offset="80%" stop-color="#f7fafc" stop-opacity="1"></stop></linearGradient></defs><g transform="translate(900, 0)"><path d="M0 189.3C-25.4 187.8 -50.7 186.3 -72.4 174.9C-94.2 163.4 -112.3 142 -120.2 120.2C-128.2 98.4 -126 76.3 -135.8 56.3C-145.6 36.2 -167.5 18.1 -189.3 0L0 0Z" fill="#f56565"></path></g><g transform="translate(0, 600)"><path d="M0 -189.3C28.3 -190.5 56.6 -191.6 72.4 -174.9C88.3 -158.1 91.6 -123.5 103.2 -103.2C114.9 -83 134.9 -77.2 150.6 -62.4C166.3 -47.6 177.8 -23.8 189.3 0L0 0Z" fill="#f56565"></path></g></svg>