<svg id="visual" viewBox="0 0 900 600" width="900" height="600" xmlns="http://www.w3.org/2000/svg" xmlns:xlink="http://www.w3.org/1999/xlink" version="1.1"><rect x="0" y="0" width="900" height="600" fill="#f7fafc"></rect><defs><linearGradient id="grad1_0" x1="33.3%" y1="0%" x2="100%" y2="100%"><stop offset="20%" stop-color="#f7fafc" stop-opacity="1"></stop><stop offset="80%" stop-color="#f7fafc" stop-opacity="1"></stop></linearGradient></defs><defs><linearGradient id="grad2_0" x1="0%" y1="0%" x2="66.7%" y2="100%"><stop offset="20%" stop-color="#f7fafc" stop-opacity="1"></stop><stop offset="80%" stop-color="#f7fafc" stop-opacity="1"></stop></linearGradient></defs><g transform="translate(900, 0)"><path d="M0 189.3C-15.8 173.9 -31.5 158.4 -49.4 152.2C-67.3 145.9 -87.4 148.8 -103.5 142.4C-119.5 136 -131.6 120.2 -144.8 105.2C-158 90.2 -172.4 75.9 -180 58.5C-187.6 41.1 -188.5 20.5 -189.3 0L0 0Z" fill="#f56565"></path></g><g transform="translate(0, 600)"><path d="M0 -189.3C20.6 -188.4 41.1 -187.6 58.5 -180C75.9 -172.5 90 -158.2 105.8 -145.6C121.6 -133.1 139 -122.3 146.4 -106.4C153.9 -90.5 151.4 -69.6 156.9 -51C162.4 -32.4 175.9 -16.2 189.3 0L0 0Z" fill="#f56565"></path></g></svg>